<svg width="52" height="61" viewBox="0 0 52 61" fill="none" xmlns="http://www.w3.org/2000/svg">
<path fill-rule="evenodd" clip-rule="evenodd" d="M0.0373133 1.93989C0.0126816 2.14107 0 2.34595 0 2.5538V57.5538C0 57.9892 0.0556634 58.4117 0.160263 58.8144C0.6671 60.7658 3.10915 60.8771 4.85515 59.8691L48.6416 34.589C51.9749 32.6645 51.975 27.8532 48.6416 25.9287L4.80444 0.619291C2.93884 -0.457816 0.299103 -0.198362 0.0373133 1.93989ZM3.51185 6.20259C3.50401 6.29104 3.5 6.38058 3.5 6.47106V53.4836C3.5 53.7592 3.53718 54.0262 3.60681 54.2798C3.9248 55.4379 5.3773 55.4963 6.41735 54.8959L44.788 32.7425C46.788 31.5878 46.788 28.7011 44.788 27.5464L6.37799 5.37035C5.24052 4.71363 3.62788 4.8943 3.51185 6.20259Z" fill="white"/>
</svg>
